<?xml version="1.0" encoding="UTF-8" standalone="no"?>
<svg
   xmlns:dc="http://purl.org/dc/elements/1.1/"
   xmlns:cc="http://creativecommons.org/ns#"
   xmlns:rdf="http://www.w3.org/1999/02/22-rdf-syntax-ns#"
   xmlns:svg="http://www.w3.org/2000/svg"
   xmlns="http://www.w3.org/2000/svg"
   xmlns:xlink="http://www.w3.org/1999/xlink"
   xmlns:sodipodi="http://sodipodi.sourceforge.net/DTD/sodipodi-0.dtd"
   xmlns:inkscape="http://www.inkscape.org/namespaces/inkscape"
   width="48"
   height="48"
   id="svg2"
   version="1.1"
   inkscape:version="0.48.3.1 r9886"
   sodipodi:docname="bool.svg">
  <sodipodi:namedview
     pagecolor="#ffffff"
     bordercolor="#666666"
     borderopacity="1"
     objecttolerance="10"
     gridtolerance="10"
     guidetolerance="10"
     inkscape:pageopacity="0"
     inkscape:pageshadow="2"
     inkscape:window-width="1309"
     inkscape:window-height="744"
     id="namedview39"
     showgrid="false"
     inkscape:zoom="9.3281238"
     inkscape:cx="3.3299807"
     inkscape:cy="24.19917"
     inkscape:window-x="57"
     inkscape:window-y="24"
     inkscape:window-maximized="1"
     inkscape:current-layer="layer1" />
  <defs
     id="defs4">
    <linearGradient
       id="linearGradient3702">
      <stop
         stop-color="#ffffff"
         id="stop3704"
         offset="0" />
      <stop
         stop-color="#ffffff"
         stop-opacity="0"
         id="stop3706"
         offset="1" />
    </linearGradient>
    <linearGradient
       id="linearGradient3689">
      <stop
         stop-color="#ffffff"
         id="stop3691"
         offset="0" />
      <stop
         stop-color="#ffffff"
         stop-opacity="0.406977"
         id="stop3693"
         offset="1" />
    </linearGradient>
    <radialGradient
       gradientUnits="userSpaceOnUse"
       gradientTransform="matrix(1,0,0,1.33526,1992.43,612.979)"
       r="262.91968"
       fy="-451.07388"
       fx="-974.18964"
       cy="-450.32495"
       cx="-971.18964"
       id="radialGradient3695"
       xlink:href="#linearGradient3689" />
    <linearGradient
       y2="350.98944"
       x2="229.86606"
       y1="745.61945"
       x1="229.86606"
       id="linearGradient3708"
       xlink:href="#linearGradient3702"
       gradientTransform="matrix(1.1690584,0,0,0.85538926,500,0)"
       gradientUnits="userSpaceOnUse" />
    <linearGradient
       y1="87.435646"
       x1="255.6684"
       y2="293.37497"
       x2="254.0596"
       id="svg_9"
       gradientTransform="matrix(1.0245737,0,0,0.97601569,-500,-1.1164695e-6)"
       gradientUnits="userSpaceOnUse">
      <stop
         offset="0"
         stop-opacity="0.996094"
         stop-color="#707070"
         id="stop15" />
      <stop
         offset="1"
         stop-opacity="0.984375"
         stop-color="#4f4e4e"
         id="stop17" />
    </linearGradient>
    <radialGradient
       inkscape:collect="always"
       xlink:href="#linearGradient3689"
       id="radialGradient3016"
       gradientUnits="userSpaceOnUse"
       gradientTransform="matrix(1,0,0,1.33526,1992.43,612.979)"
       cx="-971.18964"
       cy="-450.32495"
       fx="-974.18964"
       fy="-451.07388"
       r="262.91968" />
    <linearGradient
       inkscape:collect="always"
       xlink:href="#linearGradient3702"
       id="linearGradient3018"
       gradientUnits="userSpaceOnUse"
       gradientTransform="matrix(1.1690584,0,0,0.85538926,500,0)"
       x1="229.86606"
       y1="745.61945"
       x2="229.86606"
       y2="350.98944" />
  </defs>
  <metadata
     id="metadata7">image/svg+xml<rdf:RDF>
  <cc:Work
     rdf:about="">
    <dc:format>image/svg+xml</dc:format>
    <dc:type
       rdf:resource="http://purl.org/dc/dcmitype/StillImage" />
  </cc:Work>
</rdf:RDF>
</metadata>
  <g
     id="g20"
     transform="matrix(0.09031112,0,0,0.06786669,-0.09017974,-0.13229963)">
    <title
       id="title22">Layer 1</title>
    <g
       transform="matrix(-1,0,0,-1,533.496,708.662)"
       id="layer1">
      <path
         id="rect3684"
         d="M 21.138395,1.685578 C 14.506804,2.019562 8.760343,5.583832 5.400969,10.82956 8.509489,8.823579 12.203094,7.657136 16.193329,7.657136 l 489.170231,0 c 11.02743,0 19.90518,8.877748 19.90518,19.905213 l 0,665.486841 c 0,3.98066 -1.17523,7.65729 -3.17243,10.7613 5.49762,-3.53498 9.14399,-9.6839 9.14399,-16.73285 l 0,-665.486848 c 0,-11.027467 -8.87775,-19.905213 -19.90519,-19.905213 l -489.170347,0 c -0.344482,0 -0.686035,-0.01709 -1.026367,0 z"
         style="opacity:0.41085301;fill:url(#radialGradient3016);fill-rule:nonzero;stroke-width:10"
         inkscape:connector-curvature="0" />
      <path
         id="rect2818"
         d="m 123.30063,70.866974 286.89758,0 c 8.86402,0 16,7.135986 16,16 0,0 35,158.739656 35,267.464566 0,108.72492 -35,267.4646 -35,267.4646 0,8.86402 -7.13598,16 -16,16 l -286.89758,0 c -8.86401,0 -16,-7.13598 -16,-16 0,0 -35.000001,-158.73971 -35.000001,-267.4646 0,-108.72491 35.000001,-267.464566 35.000001,-267.464566 0,-8.864014 7.13599,-16 16,-16 z"
         inkscape:connector-curvature="0"
         style="fill:#757575;fill-rule:nonzero;stroke-width:10;fill-opacity:1" />
      <path
         d="m 123.30063,205.15268 286.89758,0 c 8.86402,0 11.95948,3.67798 16,12.21017 0,0 27,55.93692 27,135.49509 0,79.55814 -27,272.72806 -27,272.72806 0,6.7644 -7.13598,12.21014 -16,12.21014 l -286.89758,0 c -8.86401,0 -16,-5.44574 -16,-12.21014 0,0 -27.000001,-193.16992 -27.000001,-272.72806 0,-79.55817 27.000001,-135.49509 27.000001,-135.49509 0,-6.76443 7.13599,-12.21017 16,-12.21017 z"
         id="path2821"
         inkscape:connector-curvature="0"
         style="fill:#8f8f8f;fill-rule:nonzero;stroke-width:10;opacity:1;fill-opacity:1" />
      <rect
         y="227.42938"
         x="256.94943"
         height="125.71429"
         width="19.6"
         id="rect2827"
         style="fill:#ffffff;stroke-width:10" />
      <path
         id="rect2829"
         d="m 120.71567,72.857971 290.85718,0 c 6.51049,0 11.42858,4.931458 11.42858,11.428558 l -6,107.142881 c 0,6.24857 -5.18664,11.42856 -11.42858,11.42856 l -278.85718,0 c -6.24195,0 -11.42847,-5.17999 -11.42847,-11.42856 l -6,-107.142881 c 0,-6.497101 4.91797,-11.428558 11.42847,-11.428558 z"
         inkscape:connector-curvature="0"
         style="opacity:0.48;fill:#ffffff;fill-rule:nonzero;stroke-width:10" />
      <path
         id="path3679"
         d="m 424.397,92.440643 c -1.62402,37.085997 -2.90503,70.911987 -4.43994,108.005007 0.40698,2.60199 0.42395,2.92999 1.82996,4.28598 7.47693,8.621 13.97998,26.16702 17.46899,41.46902 0.005,0.022 0.026,0.041 0.031,0.063 0.006,0.019 -0.006,0.043 0,0.062 17.86706,55.232 18.44604,113.95899 12.875,170.969 -9.8e-4,0.01 9.7e-4,0.021 0,0.031 -3.62097,43.91919 -8.61304,87.69361 -14,131.40665 11.76794,-66.00235 20.80298,-132.49966 21.125,-199.46866 -9.8e-4,-0.068 -9.8e-4,-0.078 0,-0.031 -1.93897,-87.508 -16.45496,-171.01499 -33.80103,-256.761997 -0.15197,-0.867004 -1.02893,-0.763 -1.08899,-0.03 l 0,0 z"
         inkscape:connector-curvature="0"
         style="fill:#cccccf;fill-rule:nonzero;stroke-width:10" />
      <path
         id="path3697"
         d="m 447.34006,368.23264 c -136.83008,0 -262.76001,22.686 -362.820071,60.75 7.59998,87.90341 22.790041,196.59353 22.790041,196.59353 0,6.76441 7.13,12.21869 16,12.21869 l 286.90002,0 c 8.87,0 16,-5.45428 16,-12.21869 0,0 23.87,-170.78592 26.71997,-257.31253 -1.86999,-0.008 -3.71997,-0.031 -5.58996,-0.031 l 0,0 z"
         style="opacity:0.27907003;fill:url(#linearGradient3018);fill-rule:nonzero;stroke-width:10"
         inkscape:connector-curvature="0" />
    </g>
    <circle
       id="svg_14"
       r="75"
       cy="412.33856"
       cx="265.74799"
       d="m 340.74799,412.33856 c 0,41.42136 -33.57865,75 -75,75 -41.42136,0 -75,-33.57864 -75,-75 0,-41.42135 33.57864,-75 75,-75 41.42135,0 75,33.57865 75,75 z"
       sodipodi:cx="265.74799"
       sodipodi:cy="412.33856"
       sodipodi:rx="75"
       sodipodi:ry="75"
       style="fill:#ffffff;stroke:#666666;stroke-width:0"
       transform="matrix(0.72223805,0,0,0.96109191,79.097354,17.381787)" />
    <circle
       id="svg_11"
       r="55"
       cy="412.33856"
       cx="265.74799"
       d="m 320.74799,412.33856 c 0,30.37566 -24.62434,55 -55,55 -30.37567,0 -55,-24.62434 -55,-55 0,-30.37566 24.62433,-55 55,-55 30.37566,0 55,24.62434 55,55 z"
       sodipodi:cx="265.74799"
       sodipodi:cy="412.33856"
       sodipodi:rx="55"
       sodipodi:ry="55"
       style="fill:#8f8f8f;stroke:#666666;stroke-width:0;fill-opacity:1"
       transform="matrix(0.72223805,0,0,0.96109191,79.097355,17.381787)" />
    <rect
       id="svg_15"
       height="108.62432"
       width="21.000002"
       y="122.33865"
       x="255.74768"
       style="fill:#ffffff;stroke:#666666;stroke-width:0" />
    <rect
       id="svg_18"
       height="0"
       width="1"
       y="520.33856"
       x="-57.252014"
       style="fill:#4c4c4c;stroke:#666666;stroke-width:0" />
  </g>
</svg>
